# xmcd
#
# Track frame offsets: 
#        182
#        19572
#        56922
#
# Disc length: 1085 seconds
#
# Revision: 7
# Processed by: cddbd v1.5.2PL0 Copyright (c) Steve Scherf et al.
# Submitted via: ExactAudioCopyFreeDBPlugin 1.0
#
DISCID=1e043b03
DTITLE=Duran Duran - Come Undone
DYEAR=1993
DGENRE=Pop
TTITLE0=Come Undone (Edit)
TTITLE1=Come Undone (FGI Phumpin' 12 Inch)
TTITLE2=Come Undune (La Fin De Siecle)
EXTD=
EXTT0=
EXTT1=
EXTT2=
PLAYORDER=
